# xmcd
#
# Track frame offsets: 
#        150
#        12835
#        22835
#        31508
#        43493
#        57435
#        67030
#        78645
#        89950
#        100133
#        109550
#        122593
#        132720
#        144195
#        156848
#        166718
#        177590
#        193230
#
# Disc length: 2705 seconds
#
# Revision: 2
# Processed by: cddbd v1.5.2PL0 Copyright (c) Steve Scherf et al.
# Submitted via: ExactAudioCopy v0.99pb5
#
DISCID=f80a8f12
DTITLE=Various Artist - Country and Western - Volume 1
DYEAR=1987
DGENRE=
TTITLE0=Folsum Prision Blues-Johnny Cash
TTITLE1=Hey Porter-Johnny Cash
TTITLE2=Blue Is The Way I Feel-Conway Twitty
TTITLE3=You Made Me What I Am-Conway Twitty
TTITLE4=Home Is Where You're Happy-Willie Nelson
TTITLE5=I'm Building Heartaches-Willie Nelson
TTITLE6=I've Loved And Lost Again-Patsy Cline
TTITLE7=Just Out Of Reach-Patsy Cline
TTITLE8=Hello Walls-Faron Young
TTITLE9=I Can't Help It-Faron Young
TTITLE10=Where Do We Go From Here-Don Williams
TTITLE11=Take My Hand For A While-Don Williams
TTITLE12=World's Worst Loser-Johnny Paycheck
TTITLE13=I Can't Change Overnight-Johnny Paycheck
TTITLE14=I Don't Need To Know That Right Now-Dolly Parton
TTITLE15=Georgia In A Jug-Dolly Parton
TTITLE16=Release Me-Ray Pillow
TTITLE17=It Wasn't God Who Made Honky Tonk Angels-Ray Pillow
EXTD=
EXTT0=
EXTT1=
EXTT2=
EXTT3=
EXTT4=
EXTT5=
EXTT6=
EXTT7=
EXTT8=
EXTT9=
EXTT10=
EXTT11=
EXTT12=
EXTT13=
EXTT14=
EXTT15=
EXTT16=
EXTT17=
PLAYORDER=
